<?xml version="1.0" encoding="UTF-8" standalone="no"?>
<!DOCTYPE svg PUBLIC "-//W3C//DTD SVG 1.1//EN"
 "http://www.w3.org/Graphics/SVG/1.1/DTD/svg11.dtd">
<!-- Generated by graphviz version 2.43.0 (0)
 -->
<!-- Title: G Pages: 1 -->
<svg width="1289pt" height="303pt"
 viewBox="0.00 0.00 1288.50 303.00" xmlns="http://www.w3.org/2000/svg" xmlns:xlink="http://www.w3.org/1999/xlink">
<g id="graph0" class="graph" transform="scale(1 1) rotate(0) translate(4 299)">
<title>G</title>
<polygon fill="white" stroke="transparent" points="-4,4 -4,-299 1284.5,-299 1284.5,4 -4,4"/>
<g id="clust1" class="cluster">
<title>cluster_0</title>
<path fill="none" stroke="#888888" stroke-dasharray="5,2" d="M335.5,-78C335.5,-78 1260.5,-78 1260.5,-78 1266.5,-78 1272.5,-84 1272.5,-90 1272.5,-90 1272.5,-141 1272.5,-141 1272.5,-147 1266.5,-153 1260.5,-153 1260.5,-153 335.5,-153 335.5,-153 329.5,-153 323.5,-147 323.5,-141 323.5,-141 323.5,-90 323.5,-90 323.5,-84 329.5,-78 335.5,-78"/>
<text text-anchor="middle" x="798" y="-137.8" font-family="Helvetica,sans-Serif" font-size="14.00">Operation classes</text>
</g>
<!-- life -->
<g id="node1" class="node">
<title>life</title>
<polygon fill="none" stroke="black" points="495.5,-122 331.24,-104 495.5,-86 659.76,-104 495.5,-122"/>
<text text-anchor="middle" x="495.5" y="-101.2" font-family="Helvetica,sans-Serif" font-size="11.00">lifecycle — start / stop / rebuild</text>
</g>
<!-- rebuild -->
<g id="node7" class="node">
<title>rebuild</title>
<polygon fill="none" stroke="black" points="355,-36 0,-36 0,0 355,0 355,-36"/>
<text text-anchor="middle" x="177.5" y="-15.2" font-family="Helvetica,sans-Serif" font-size="11.00">rebuild = COMPILE ONLY — starts/stops nothing, N&#45;63 lesson</text>
</g>
<!-- life&#45;&gt;rebuild -->
<g id="edge6" class="edge">
<title>life&#45;&gt;rebuild</title>
<path fill="none" stroke="black" d="M449.94,-90.96C398.29,-77.32 313.31,-54.87 251.98,-38.67"/>
<polygon fill="black" stroke="black" points="252.53,-35.2 241.97,-36.03 250.74,-41.97 252.53,-35.2"/>
<text text-anchor="middle" x="362.5" y="-58.8" font-family="Helvetica,sans-Serif" font-size="9.00">rebuild</text>
</g>
<!-- procs -->
<g id="node8" class="node">
<title>procs</title>
<path fill="none" stroke="black" d="M599,-36C599,-36 392,-36 392,-36 386,-36 380,-30 380,-24 380,-24 380,-12 380,-12 380,-6 386,0 392,0 392,0 599,0 599,0 605,0 611,-6 611,-12 611,-12 611,-24 611,-24 611,-30 605,-36 599,-36"/>
<text text-anchor="middle" x="495.5" y="-15.2" font-family="Helvetica,sans-Serif" font-size="11.00">process lifecycle — kernel / bridge / UI</text>
</g>
<!-- life&#45;&gt;procs -->
<g id="edge7" class="edge">
<title>life&#45;&gt;procs</title>
<path fill="none" stroke="black" d="M495.5,-85.6C495.5,-74.26 495.5,-59.23 495.5,-46.32"/>
<polygon fill="black" stroke="black" points="499,-46.1 495.5,-36.1 492,-46.1 499,-46.1"/>
<text text-anchor="middle" x="520.5" y="-58.8" font-family="Helvetica,sans-Serif" font-size="9.00">start / stop</text>
</g>
<!-- cfg -->
<g id="node2" class="node">
<title>cfg</title>
<polygon fill="none" stroke="black" points="786.5,-122 684.5,-122 684.5,-86 786.5,-86 786.5,-122"/>
<text text-anchor="middle" x="735.5" y="-101.2" font-family="Helvetica,sans-Serif" font-size="11.00">config get / set</text>
</g>
<!-- store -->
<g id="node9" class="node">
<title>store</title>
<path fill="none" stroke="black" d="M853,-32.73C853,-34.53 804.37,-36 744.5,-36 684.63,-36 636,-34.53 636,-32.73 636,-32.73 636,-3.27 636,-3.27 636,-1.47 684.63,0 744.5,0 804.37,0 853,-1.47 853,-3.27 853,-3.27 853,-32.73 853,-32.73"/>
<path fill="none" stroke="black" d="M853,-32.73C853,-30.92 804.37,-29.45 744.5,-29.45 684.63,-29.45 636,-30.92 636,-32.73"/>
<text text-anchor="middle" x="744.5" y="-15.2" font-family="Helvetica,sans-Serif" font-size="11.00">single config source — same as GUI</text>
</g>
<!-- cfg&#45;&gt;store -->
<g id="edge8" class="edge">
<title>cfg&#45;&gt;store</title>
<path fill="none" stroke="black" d="M738.46,-75.33C739.47,-65.92 740.6,-55.42 741.6,-46.06"/>
<polygon fill="black" stroke="black" points="734.95,-75.28 737.36,-85.6 741.91,-76.02 734.95,-75.28"/>
<polygon fill="black" stroke="black" points="745.08,-46.41 742.67,-36.1 738.12,-45.67 745.08,-46.41"/>
</g>
<!-- memops -->
<g id="node3" class="node">
<title>memops</title>
<polygon fill="none" stroke="black" points="1063.5,-122 811.5,-122 811.5,-86 1063.5,-86 1063.5,-122"/>
<text text-anchor="middle" x="937.5" y="-101.2" font-family="Helvetica,sans-Serif" font-size="11.00">memory ops — inspect / compact / export</text>
</g>
<!-- subsys -->
<g id="node10" class="node">
<title>subsys</title>
<path fill="none" stroke="black" d="M1166,-36C1166,-36 989,-36 989,-36 983,-36 977,-30 977,-24 977,-24 977,-12 977,-12 977,-6 983,0 989,0 989,0 1166,0 1166,0 1172,0 1178,-6 1178,-12 1178,-12 1178,-24 1178,-24 1178,-30 1172,-36 1166,-36"/>
<text text-anchor="middle" x="1077.5" y="-15.2" font-family="Helvetica,sans-Serif" font-size="11.00">every subsystem — admin reach</text>
</g>
<!-- memops&#45;&gt;subsys -->
<g id="edge9" class="edge">
<title>memops&#45;&gt;subsys</title>
<path fill="none" stroke="black" d="M966.17,-85.8C987.5,-73 1016.8,-55.42 1039.99,-41.51"/>
<polygon fill="black" stroke="black" points="1042.1,-44.32 1048.87,-36.18 1038.49,-38.32 1042.1,-44.32"/>
</g>
<!-- doctor -->
<g id="node4" class="node">
<title>doctor</title>
<polygon fill="none" stroke="black" points="1264,-122 1089,-122 1089,-86 1264,-86 1264,-122"/>
<text text-anchor="middle" x="1176.5" y="-101.2" font-family="Helvetica,sans-Serif" font-size="11.00">diagnostics — health probes</text>
</g>
<!-- doctor&#45;&gt;subsys -->
<g id="edge10" class="edge">
<title>doctor&#45;&gt;subsys</title>
<path fill="none" stroke="black" d="M1155.99,-85.6C1141.42,-73.24 1121.69,-56.49 1105.65,-42.88"/>
<polygon fill="black" stroke="black" points="1107.54,-39.9 1097.65,-36.1 1103.01,-45.23 1107.54,-39.9"/>
</g>
<!-- op -->
<g id="node5" class="node">
<title>op</title>
<path fill="none" stroke="black" d="M888.5,-295C888.5,-295 784.5,-295 784.5,-295 778.5,-295 772.5,-289 772.5,-283 772.5,-283 772.5,-271 772.5,-271 772.5,-265 778.5,-259 784.5,-259 784.5,-259 888.5,-259 888.5,-259 894.5,-259 900.5,-265 900.5,-271 900.5,-271 900.5,-283 900.5,-283 900.5,-289 894.5,-295 888.5,-295"/>
<text text-anchor="middle" x="836.5" y="-274.2" font-family="Helvetica,sans-Serif" font-size="11.00">operator — lk verbs</text>
</g>
<!-- parse -->
<g id="node6" class="node">
<title>parse</title>
<polygon fill="none" stroke="black" points="877,-218 796,-218 796,-182 877,-182 877,-218"/>
<text text-anchor="middle" x="836.5" y="-197.2" font-family="Helvetica,sans-Serif" font-size="11.00">verb router</text>
</g>
<!-- op&#45;&gt;parse -->
<g id="edge1" class="edge">
<title>op&#45;&gt;parse</title>
<path fill="none" stroke="black" d="M836.5,-258.98C836.5,-249.94 836.5,-238.6 836.5,-228.35"/>
<polygon fill="black" stroke="black" points="840,-228.21 836.5,-218.21 833,-228.21 840,-228.21"/>
</g>
<!-- parse&#45;&gt;life -->
<g id="edge2" class="edge">
<title>parse&#45;&gt;life</title>
<path fill="none" stroke="black" d="M795.71,-187.75C734.29,-170.82 618,-138.77 549.58,-119.91"/>
<polygon fill="black" stroke="black" points="550.42,-116.51 539.85,-117.22 548.56,-123.26 550.42,-116.51"/>
</g>
<!-- parse&#45;&gt;cfg -->
<g id="edge3" class="edge">
<title>parse&#45;&gt;cfg</title>
<path fill="none" stroke="black" d="M817.98,-181.76C802.17,-167.05 779.27,-145.74 761.61,-129.3"/>
<polygon fill="black" stroke="black" points="763.61,-126.38 753.91,-122.13 758.84,-131.51 763.61,-126.38"/>
</g>
<!-- parse&#45;&gt;memops -->
<g id="edge4" class="edge">
<title>parse&#45;&gt;memops</title>
<path fill="none" stroke="black" d="M855.02,-181.76C870.83,-167.05 893.73,-145.74 911.39,-129.3"/>
<polygon fill="black" stroke="black" points="914.16,-131.51 919.09,-122.13 909.39,-126.38 914.16,-131.51"/>
</g>
<!-- parse&#45;&gt;doctor -->
<g id="edge5" class="edge">
<title>parse&#45;&gt;doctor</title>
<path fill="none" stroke="black" d="M877.21,-191.2C945.69,-178.07 1076.5,-153 1076.5,-153 1076.5,-153 1105.08,-139.28 1131.69,-126.51"/>
<polygon fill="black" stroke="black" points="1133.46,-129.54 1140.96,-122.06 1130.43,-123.23 1133.46,-129.54"/>
</g>
</g>
</svg>
