<?xml version="1.0" encoding="UTF-8" standalone="no"?>
<!DOCTYPE svg PUBLIC "-//W3C//DTD SVG 1.1//EN"
 "http://www.w3.org/Graphics/SVG/1.1/DTD/svg11.dtd">
<!-- Generated by graphviz version 2.43.0 (0)
 -->
<!-- Title: G Pages: 1 -->
<svg width="1439pt" height="361pt"
 viewBox="0.00 0.00 1438.50 361.00" xmlns="http://www.w3.org/2000/svg" xmlns:xlink="http://www.w3.org/1999/xlink">
<g id="graph0" class="graph" transform="scale(1 1) rotate(0) translate(4 357)">
<title>G</title>
<polygon fill="white" stroke="transparent" points="-4,4 -4,-357 1434.5,-357 1434.5,4 -4,4"/>
<!-- trgw -->
<g id="node1" class="node">
<title>trgw</title>
<path fill="none" stroke="black" d="M505,-353C505,-353 189,-353 189,-353 183,-353 177,-347 177,-341 177,-341 177,-329 177,-329 177,-323 183,-317 189,-317 189,-317 505,-317 505,-317 511,-317 517,-323 517,-329 517,-329 517,-341 517,-341 517,-347 511,-353 505,-353"/>
<text text-anchor="middle" x="347" y="-338.2" font-family="Helvetica,sans-Serif" font-size="11.00">Execute Workflow Trigger — WRITE: the only mutator path</text>
<text text-anchor="middle" x="347" y="-326.2" font-family="Helvetica,sans-Serif" font-size="11.00">n8n: I1 enforced by convention, one shared workflow</text>
</g>
<!-- classify -->
<g id="node2" class="node">
<title>classify</title>
<polygon fill="none" stroke="black" points="347,-276 238.99,-258 347,-240 455.01,-258 347,-276"/>
<text text-anchor="middle" x="347" y="-255.2" font-family="Helvetica,sans-Serif" font-size="11.00">Switch — write kind</text>
</g>
<!-- trgw&#45;&gt;classify -->
<g id="edge1" class="edge">
<title>trgw&#45;&gt;classify</title>
<path fill="none" stroke="black" stroke-width="2.2" d="M347,-316.98C347,-307.94 347,-296.6 347,-286.35"/>
<polygon fill="black" stroke="black" stroke-width="2.2" points="350.5,-286.21 347,-276.21 343.5,-286.21 350.5,-286.21"/>
</g>
<!-- vstore -->
<g id="node3" class="node">
<title>vstore</title>
<path fill="none" stroke="black" d="M220,-186.73C220,-188.53 170.7,-190 110,-190 49.3,-190 0,-188.53 0,-186.73 0,-186.73 0,-157.27 0,-157.27 0,-155.47 49.3,-154 110,-154 170.7,-154 220,-155.47 220,-157.27 220,-157.27 220,-186.73 220,-186.73"/>
<path fill="none" stroke="black" d="M220,-186.73C220,-184.92 170.7,-183.45 110,-183.45 49.3,-183.45 0,-184.92 0,-186.73"/>
<text text-anchor="middle" x="110" y="-169.2" font-family="Helvetica,sans-Serif" font-size="11.00">Vector Store — Insert + Embeddings</text>
</g>
<!-- classify&#45;&gt;vstore -->
<g id="edge2" class="edge">
<title>classify&#45;&gt;vstore</title>
<path fill="none" stroke="black" d="M314.05,-245.32C276.29,-231.94 213.71,-209.76 167.79,-193.48"/>
<polygon fill="black" stroke="black" points="168.86,-190.15 158.26,-190.11 166.52,-196.75 168.86,-190.15"/>
<text text-anchor="middle" x="254" y="-212.8" font-family="Helvetica,sans-Serif" font-size="9.00">content</text>
</g>
<!-- kv -->
<g id="node4" class="node">
<title>kv</title>
<path fill="none" stroke="black" d="M449,-186.73C449,-188.53 403.28,-190 347,-190 290.72,-190 245,-188.53 245,-186.73 245,-186.73 245,-157.27 245,-157.27 245,-155.47 290.72,-154 347,-154 403.28,-154 449,-155.47 449,-157.27 449,-157.27 449,-186.73 449,-186.73"/>
<path fill="none" stroke="black" d="M449,-186.73C449,-184.92 403.28,-183.45 347,-183.45 290.72,-183.45 245,-184.92 245,-186.73"/>
<text text-anchor="middle" x="347" y="-169.2" font-family="Helvetica,sans-Serif" font-size="11.00">Data store node — tiered records</text>
</g>
<!-- classify&#45;&gt;kv -->
<g id="edge3" class="edge">
<title>classify&#45;&gt;kv</title>
<path fill="none" stroke="black" d="M347,-239.6C347,-228.26 347,-213.23 347,-200.32"/>
<polygon fill="black" stroke="black" points="350.5,-200.1 347,-190.1 343.5,-200.1 350.5,-200.1"/>
<text text-anchor="middle" x="362" y="-212.8" font-family="Helvetica,sans-Serif" font-size="9.00">record</text>
</g>
<!-- edge -->
<g id="node5" class="node">
<title>edge</title>
<polygon fill="none" stroke="black" points="778,-190 474,-190 474,-154 778,-154 778,-190"/>
<text text-anchor="middle" x="626" y="-169.2" font-family="Helvetica,sans-Serif" font-size="11.00">HTTP / Data store — upsert graph edge with weight</text>
</g>
<!-- classify&#45;&gt;edge -->
<g id="edge4" class="edge">
<title>classify&#45;&gt;edge</title>
<path fill="none" stroke="black" d="M383.47,-246.02C428.13,-232.57 504.62,-209.54 559.77,-192.94"/>
<polygon fill="black" stroke="black" points="560.9,-196.26 569.46,-190.02 558.88,-189.55 560.9,-196.26"/>
<text text-anchor="middle" x="521.5" y="-212.8" font-family="Helvetica,sans-Serif" font-size="9.00">link / delete</text>
</g>
<!-- trgr -->
<g id="node6" class="node">
<title>trgr</title>
<path fill="none" stroke="black" d="M999,-353C999,-353 767,-353 767,-353 761,-353 755,-347 755,-341 755,-341 755,-329 755,-329 755,-323 761,-317 767,-317 767,-317 999,-317 999,-317 1005,-317 1011,-323 1011,-329 1011,-329 1011,-341 1011,-341 1011,-347 1005,-353 999,-353"/>
<text text-anchor="middle" x="883" y="-332.2" font-family="Helvetica,sans-Serif" font-size="11.00">Execute Workflow Trigger — RECALL: query</text>
</g>
<!-- emb -->
<g id="node7" class="node">
<title>emb</title>
<polygon fill="none" stroke="black" points="970.5,-276 795.5,-276 795.5,-240 970.5,-240 970.5,-276"/>
<text text-anchor="middle" x="883" y="-255.2" font-family="Helvetica,sans-Serif" font-size="11.00">Embeddings — query vector</text>
</g>
<!-- trgr&#45;&gt;emb -->
<g id="edge5" class="edge">
<title>trgr&#45;&gt;emb</title>
<path fill="none" stroke="black" stroke-width="2.2" d="M883,-316.98C883,-307.94 883,-296.6 883,-286.35"/>
<polygon fill="black" stroke="black" stroke-width="2.2" points="886.5,-286.21 883,-276.21 879.5,-286.21 886.5,-286.21"/>
</g>
<!-- vget -->
<g id="node8" class="node">
<title>vget</title>
<path fill="none" stroke="black" d="M962.5,-186.73C962.5,-188.53 926.87,-190 883,-190 839.13,-190 803.5,-188.53 803.5,-186.73 803.5,-186.73 803.5,-157.27 803.5,-157.27 803.5,-155.47 839.13,-154 883,-154 926.87,-154 962.5,-155.47 962.5,-157.27 962.5,-157.27 962.5,-186.73 962.5,-186.73"/>
<path fill="none" stroke="black" d="M962.5,-186.73C962.5,-184.92 926.87,-183.45 883,-183.45 839.13,-183.45 803.5,-184.92 803.5,-186.73"/>
<text text-anchor="middle" x="883" y="-169.2" font-family="Helvetica,sans-Serif" font-size="11.00">Vector Store — Get Many</text>
</g>
<!-- emb&#45;&gt;vget -->
<g id="edge6" class="edge">
<title>emb&#45;&gt;vget</title>
<path fill="none" stroke="black" stroke-width="2.2" d="M883,-239.6C883,-228.26 883,-213.23 883,-200.32"/>
<polygon fill="black" stroke="black" stroke-width="2.2" points="886.5,-200.1 883,-190.1 879.5,-200.1 886.5,-200.1"/>
</g>
<!-- fuse -->
<g id="node11" class="node">
<title>fuse</title>
<polygon fill="none" stroke="black" points="1219.5,-113 932.5,-113 932.5,-77 1219.5,-77 1219.5,-113"/>
<text text-anchor="middle" x="1076" y="-98.2" font-family="Helvetica,sans-Serif" font-size="11.00">Code — fuse lexical + vector + graph + recency</text>
<text text-anchor="middle" x="1076" y="-86.2" font-family="Helvetica,sans-Serif" font-size="11.00">n8n: no native fusion</text>
</g>
<!-- vget&#45;&gt;fuse -->
<g id="edge7" class="edge">
<title>vget&#45;&gt;fuse</title>
<path fill="none" stroke="black" d="M926.79,-153.98C955.2,-142.94 992.38,-128.49 1022.53,-116.78"/>
<polygon fill="black" stroke="black" points="1023.99,-119.97 1032.04,-113.08 1021.46,-113.44 1023.99,-119.97"/>
</g>
<!-- kget -->
<g id="node9" class="node">
<title>kget</title>
<path fill="none" stroke="black" d="M1165,-186.73C1165,-188.53 1125.11,-190 1076,-190 1026.89,-190 987,-188.53 987,-186.73 987,-186.73 987,-157.27 987,-157.27 987,-155.47 1026.89,-154 1076,-154 1125.11,-154 1165,-155.47 1165,-157.27 1165,-157.27 1165,-186.73 1165,-186.73"/>
<path fill="none" stroke="black" d="M1165,-186.73C1165,-184.92 1125.11,-183.45 1076,-183.45 1026.89,-183.45 987,-184.92 987,-186.73"/>
<text text-anchor="middle" x="1076" y="-169.2" font-family="Helvetica,sans-Serif" font-size="11.00">Data store — recent / lexical</text>
</g>
<!-- kget&#45;&gt;fuse -->
<g id="edge8" class="edge">
<title>kget&#45;&gt;fuse</title>
<path fill="none" stroke="black" d="M1076,-153.98C1076,-144.94 1076,-133.6 1076,-123.35"/>
<polygon fill="black" stroke="black" points="1079.5,-123.21 1076,-113.21 1072.5,-123.21 1079.5,-123.21"/>
</g>
<!-- gget -->
<g id="node10" class="node">
<title>gget</title>
<polygon fill="none" stroke="black" points="1430.5,-190 1189.5,-190 1189.5,-154 1430.5,-154 1430.5,-190"/>
<text text-anchor="middle" x="1310" y="-169.2" font-family="Helvetica,sans-Serif" font-size="11.00">Code — graph neighbourhood + weights</text>
</g>
<!-- gget&#45;&gt;fuse -->
<g id="edge9" class="edge">
<title>gget&#45;&gt;fuse</title>
<path fill="none" stroke="black" d="M1256.9,-153.98C1221.87,-142.75 1175.82,-127.99 1138.94,-116.17"/>
<polygon fill="black" stroke="black" points="1139.88,-112.8 1129.29,-113.08 1137.75,-119.47 1139.88,-112.8"/>
</g>
<!-- resp -->
<g id="node12" class="node">
<title>resp</title>
<path fill="none" stroke="black" d="M1140,-36C1140,-36 1012,-36 1012,-36 1006,-36 1000,-30 1000,-24 1000,-24 1000,-12 1000,-12 1000,-6 1006,0 1012,0 1012,0 1140,0 1140,0 1146,0 1152,-6 1152,-12 1152,-12 1152,-24 1152,-24 1152,-30 1146,-36 1140,-36"/>
<text text-anchor="middle" x="1076" y="-15.2" font-family="Helvetica,sans-Serif" font-size="11.00">Respond — recall digest</text>
</g>
<!-- fuse&#45;&gt;resp -->
<g id="edge10" class="edge">
<title>fuse&#45;&gt;resp</title>
<path fill="none" stroke="black" stroke-width="2.2" d="M1076,-76.98C1076,-67.94 1076,-56.6 1076,-46.35"/>
<polygon fill="black" stroke="black" stroke-width="2.2" points="1079.5,-46.21 1076,-36.21 1072.5,-46.21 1079.5,-46.21"/>
</g>
</g>
</svg>
